# xmcd
#
# Track frame offsets: 
#        150
#        39992
#        71817
#        87423
#        118690
#        138870
#
# Disc length: 2336 seconds
#
# Revision: 2
# Processed by: cddbd v1.5.2PL0 Copyright (c) Steve Scherf et al.
# Submitted via: ExactAudioCopyFreeDBPlugin 1.0
#
DISCID=4e091e06
DTITLE=本田竹曠 - This is Honda
DYEAR=1972
DGENRE=Jazz
TTITLE0=You Don't Know What Love Is
TTITLE1=Bye Bye Blackbird
TTITLE2=Round About Midnight
TTITLE3=Softly As In Morining Sunrise
TTITLE4=When Sunny Gets Blue
TTITLE5=Secret Love
EXTD=YEAR: 1972
EXTT0=
EXTT1=
EXTT2=
EXTT3=
EXTT4=
EXTT5=
PLAYORDER=
